- 
http://www.Speed.Cd
 
http://www.Speed.Cd       the fast  and The Hottest Private Tracker on the net

Please Seed back to make the speed Faster!!
 ............ NFO .............
-General
Unique ID : 242772411554749278962587210205757483104 (0xB6A4440577E13E0B8F2769F7CF30A860)
Complete name : Castle S05E05 720p WEB-DL DD5.1 H.264-NFHD.mkv
Format : Matroska
Format version : Version 2
File size : 1.32 GiB
Duration : 43mn 15s
Overall bit rate : 4 379 Kbps
Encoded date : UTC 2012-10-30 19:59:59
Writing application : mkvmerge v5.8.0 ('No Sleep / Pillow') built on Sep 2 2012 15:37:04
Writing library : libebml v1.2.3 + libmatroska v1.3.0

Video
ID : 1
Format : AVC
Format/Info : Advanced Video Codec
Format profile : High@L3.1
Format settings, CABAC : No
Format settings, ReFrames : 2 frames
Codec ID : V_MPEG4/ISO/AVC
Duration : 43mn 15s
Bit rate : 3 908 Kbps
Width : 1 280 pixels
Height : 720 pixels
Display aspect ratio : 16:9
Frame rate : 23.976 fps
Color space : YUV
Chroma subsampling : 4:2:0
Bit depth : 8 bits
Scan type : Progressive
Bits/(Pixel*Frame) : 0.177
Stream size : 1.18 GiB (89%)
Title : Castle - Season 5, Episode 5: Probable Cause
Language : English
Default : Yes
Forced : No
Color primaries : BT.709-5, BT.1361, IEC 61966-2-4, SMPTE RP177
Transfer characteristics : BT.709-5, BT.1361
Matrix coefficients : BT.709-5, BT.1361, IEC 61966-2-4 709, SMPTE RP177

Audio
ID : 2
Format : AC-3
Format/Info : Audio Coding 3
Mode extension : CM (complete main)
Format settings, Endianness : Big
Codec ID : A_AC3
Duration : 43mn 15s
Bit rate mode : Constant
Bit rate : 384 Kbps
Channel(s) : 6 channels
Channel positions : Front: L C R, Side: L R, LFE
Sampling rate : 48.0 KHz
Bit depth : 16 bits
Compression mode : Lossy
Stream size : 119 MiB (9%)
Title : Dolby Digital 5.1 @ 384 kbps
Language : English
Default : Yes
Forced : No